# xmcd
#
# Track frame offsets: 
#        150
#        22791
#        39087
#        58366
#        78686
#        101224
#        132897
#        159896
#        172469
#        182456
#        204434
#        210111
#        217212
#        256767
#
# Disc length: 3809 seconds
#
# Revision: 1
# Processed by: cddbd v1.5.2PL0 Copyright (c) Steve Scherf et al.
# Submitted via: ExactAudioCopy v1.0b4
#
DISCID=bd0edf0e
DTITLE=Dave Alvin - Live In Long Beach 1997
DYEAR=2015
DGENRE=Blues
TTITLE0=Barn Burning
TTITLE1=East Texas Blues
TTITLE2=How You Want It Done
TTITLE3=Dry River
TTITLE4=Chains Of Love
TTITLE5=Long White Cadillac
TTITLE6=Billy Boy Arnold and Dave Alvin - I Wish You Would
TTITLE7=Gatemouth Brown and Dave Alvin - San Antono Rose
TTITLE8=Gatemouth Brown and Dave Alvin - Wabash Cannonball
TTITLE9=Gatemouth Brown and Dave Alvin - Beer Barrel Polka
TTITLE10=Gatemouth Brown and Dave Alvin - Jolie Blon
TTITLE11=Gatemouth Brown and Dave Alvin - Jambalaya
TTITLE12=Billy Boy Arnold, Joe Louis Walker and Dave Alvin - Long Beach 
TTITLE12=Blues
TTITLE13=Billy Boy Arnold, Joe Louis Walker and Dave Alvin - It's A Long
TTITLE13=Way Home
EXTD=
EXTT0=
EXTT1=
EXTT2=
EXTT3=
EXTT4=
EXTT5=
EXTT6=
EXTT7=
EXTT8=
EXTT9=
EXTT10=
EXTT11=
EXTT12=
EXTT13=
PLAYORDER=
